<svg width="104" height="23" viewBox="0 0 104 23" fill="none" xmlns="http://www.w3.org/2000/svg">
    <path fill-rule="evenodd" clip-rule="evenodd" d="M41.6718 1.55437H46.8153L51.7714 22.6522H47.2334L44.0674 9.1794C43.7095 7.65592 42.6516 5.7747 40.7506 5.79152L41.6718 1.55437ZM40.4803 6.40916L36.6642 22.6499H41.203L41.8163 20.0425H46.1192L45.3238 16.5002H42.6485L43.8986 11.1929L43.4579 9.31699C43.1602 8.05265 42.2992 6.39311 40.7592 6.40687H40.4834L40.4803 6.40916ZM29.5728 1.27612C31.3012 1.28112 32.9586 1.9495 34.1886 3.13754C35.4186 4.32557 36.1229 5.93839 36.1501 7.62917L31.7559 7.91429V7.57948C31.7543 7.01074 31.5248 6.46529 31.1166 6.06035C30.7083 5.65542 30.1541 5.4233 29.5728 5.4139V1.27612ZM29.5134 13.8553H31.7559V16.8587C31.7539 17.4272 31.5242 17.9724 31.1161 18.3771C30.7079 18.7819 30.1539 19.0139 29.5728 19.0235V22.9985C31.316 22.9934 32.9864 22.3137 34.2191 21.1077C35.4517 19.9018 36.1465 18.2676 36.1517 16.5621V10.2618H29.5103V13.8546L29.5134 13.8553ZM28.9571 22.9992C27.2138 22.9942 25.5434 22.3145 24.3106 21.1085C23.0778 19.9026 22.3828 18.2684 22.3775 16.5629V7.71249C22.3828 6.00694 23.0778 4.37275 24.3106 3.16681C25.5434 1.96087 27.2138 1.28116 28.9571 1.27612V5.41466C28.3845 5.43654 27.8428 5.67395 27.4448 6.07734C27.0469 6.48072 26.8237 7.01889 26.8217 7.57948V16.8587C26.8235 17.4192 27.0468 17.9573 27.4447 18.3605C27.8427 18.7637 28.3846 19.0007 28.9571 19.022V22.9969V22.9992ZM15.8025 1.55437H20.3413V22.6522H15.8025V1.55437ZM7.19611 1.27612C8.92445 1.28112 10.5818 1.94953 11.8116 3.13759C13.0415 4.32564 13.7456 5.93846 13.7726 7.62917L9.37604 7.91429V7.57948C9.3745 7.01126 9.14538 6.46626 8.73784 6.06141C8.33031 5.65655 7.77682 5.42409 7.19611 5.4139V1.27612ZM7.13673 13.8553H9.37604V16.8587C9.37409 17.4267 9.14482 17.9714 8.73735 18.3761C8.32988 18.7807 7.77662 19.0131 7.19611 19.0235V22.9985C8.93921 22.9932 10.6094 22.3134 11.8419 21.1075C13.0744 19.9015 13.769 18.2675 13.7742 16.5621V10.2618H7.13673V13.8546V13.8553ZM6.57885 22.9992C4.83562 22.9942 3.16525 22.3145 1.93259 21.1085C0.699935 19.9025 0.00515296 18.2684 0 16.5629L0 7.71249C0.00515296 6.00701 0.699935 4.37282 1.93259 3.16686C3.16525 1.9609 4.83562 1.28116 6.57885 1.27612V5.41466C6.00643 5.43673 5.46483 5.67423 5.06709 6.07759C4.66935 6.48096 4.44622 7.01902 4.44424 7.57948V16.8587C4.44584 17.4191 4.66891 17.9572 5.06676 18.3604C5.46462 18.7636 6.00644 19.0007 6.57885 19.022V22.9969V22.9992Z" fill="black"/>
    <path d="M55.6743 22.5837V1.50732H61.5929C63.8817 1.50732 65.7486 2.35149 67.1936 4.03983C68.6385 5.72816 69.361 7.89961 69.361 10.5542V13.5507C69.361 16.2144 68.6385 18.3858 67.1936 20.065C65.7486 21.7442 63.8817 22.5837 61.5929 22.5837H55.6743ZM58.6786 3.73636V20.3547H61.4914C63.002 20.3547 64.193 19.7215 65.0644 18.4551C65.9359 17.1888 66.3724 15.5501 66.3739 13.5392V10.5083C66.3739 8.51725 65.9374 6.89084 65.0644 5.62904C64.1914 4.36725 63.0004 3.73636 61.4914 3.73636H58.6786Z" fill="black"/>
    <path d="M78.1649 22.8864C76.261 22.8864 74.7369 22.2397 73.5925 20.9463C72.4481 19.653 71.8751 17.998 71.8735 15.9815V13.6943C71.8735 11.6483 72.4332 9.95942 73.5526 8.62782C74.672 7.29621 76.0951 6.63015 77.8218 6.62964C79.6361 6.62964 81.0318 7.23531 82.009 8.44665C82.9862 9.65799 83.4746 11.2864 83.474 13.332V15.3592H74.8653V15.9815C74.8653 17.333 75.1687 18.45 75.7755 19.3327C76.3824 20.2153 77.2418 20.6569 78.3539 20.6574C79.1832 20.6574 79.8934 20.53 80.4846 20.2752C81.1084 19.9983 81.679 19.6187 82.1716 19.153L83.1185 20.9769C82.6154 21.5375 81.9398 21.9961 81.0917 22.3529C80.2437 22.7096 79.2681 22.8874 78.1649 22.8864ZM77.825 8.85943C76.9561 8.85943 76.2605 9.27451 75.738 10.1047C75.2156 10.9348 74.9247 11.9866 74.8653 13.2602H80.5026V12.6624C80.5026 11.5453 80.2758 10.6321 79.8221 9.92273C79.3684 9.21336 78.7027 8.85892 77.825 8.85943Z" fill="black"/>
    <path d="M94.2927 22.5822C94.1844 22.2255 94.0956 21.8756 94.0263 21.5326C93.9571 21.1911 93.9128 20.8453 93.8935 20.4976C93.4684 21.1823 92.8983 21.7698 92.2214 22.2206C91.5634 22.6603 90.7836 22.8927 89.9868 22.8864C88.6351 22.8864 87.5772 22.4691 86.813 21.6343C86.0489 20.7996 85.6665 19.6825 85.666 18.2831C85.666 16.7874 86.1869 15.6125 87.2287 14.7584C88.2705 13.9043 89.7329 13.4773 91.6159 13.4773H93.8505V11.8804C93.8505 10.931 93.6333 10.19 93.1989 9.65748C92.7645 9.12494 92.148 8.85892 91.3495 8.85943C90.6296 8.85943 90.0501 9.0992 89.611 9.57875C89.1719 10.0583 88.9523 10.6576 88.9523 11.3766L86.0973 11.3621L86.0528 11.275C86.0007 10.0657 86.4937 8.98913 87.5318 8.04533C88.57 7.10154 89.9066 6.62964 91.5417 6.62964C93.12 6.62964 94.4001 7.08574 95.3819 7.99794C96.3638 8.91014 96.8545 10.2096 96.854 11.8964V19.163C96.8526 19.7507 96.8897 20.338 96.9649 20.9211C97.0382 21.4825 97.1594 22.0368 97.3275 22.5784L94.2927 22.5822ZM90.6674 20.6574C91.3568 20.6607 92.029 20.4462 92.584 20.0459C93.1423 19.6608 93.5803 19.1315 93.849 18.517V15.3011H91.5721C90.6548 15.3011 89.9423 15.5898 89.4344 16.1672C88.9265 16.7446 88.6726 17.4504 88.6726 18.2847C88.6726 18.9935 88.845 19.5661 89.1898 20.0023C89.5347 20.4385 90.0272 20.6569 90.6674 20.6574Z" fill="black"/>
    <path d="M103.468 22.5823H100.464V0H103.468V22.5823Z" fill="black"/>
</svg>