<svg xmlns="http://www.w3.org/2000/svg" xmlns:xlink="http://www.w3.org/1999/xlink" version="1.1" style="" xml:space="preserve" width="841.9" height="178.5"><rect id="backgroundrect" width="100%" height="100%" x="0" y="0" fill="none" stroke="none"/>
<style type="text/css">
	.st0{fill-rule:evenodd;clip-rule:evenodd;}
	.st1{fill-rule:evenodd;clip-rule:evenodd;fill:#FFCB05;}
</style>


<g class="currentLayer" style=""><title>Layer 1</title><path class="st1" d="M784.8,11.873684251308442 h31.6 v120.2 c-13.3,-2 -17.3,-10.8 -21.6,-22.2 l-10.1,-26.7 V11.873684251308442 L784.8,11.873684251308442 zM716.7,11.873684251308442 h36.5 l37.5,99.7 c4.2,11.2 9,22.9 25.8,25.2 v30 h-36.5 L740.2,60.87368425130844 C735.5,48.27368425130844 727.7,43.47368425130844 716.6,42.47368425130844 L716.7,11.873684251308442 L716.7,11.873684251308442 zM716.8,166.77368425130845 h31.6 V95.87368425130845 L736,62.47368425130844 c-3.6,-9.7 -9.1,-14.4 -19.1,-15.5 V166.77368425130845 L716.8,166.77368425130845 zM655,169.27368425130845 c26,0 47.3,-21.3 47.3,-47.2 v-65 c0,-26 -21.3,-47.2 -47.3,-47.2 v30.4 c8.5,0.30000000000000004 15.3,7.3 15.3,15.9 v68.1 c0,8.6 -6.9,15.6 -15.3,15.9 V169.27368425130845 L655,169.27368425130845 zM649.9,169.27368425130845 c-26,0 -47.3,-21.3 -47.3,-47.2 v-65 c0,-26 21.3,-47.2 47.3,-47.2 v30.4 c-8.5,0.30000000000000004 -15.3,7.3 -15.3,15.9 v68.1 c0,8.6 6.9,15.6 15.3,15.9 V169.27368425130845 L649.9,169.27368425130845 zM572.7,105.27368425130844 l22.3,61.4 h-35.2 l-19.3,-53 h4.3 C555.2,113.77368425130844 564.7,110.67368425130844 572.7,105.27368425130844 L572.7,105.27368425130844 zM546.2,11.873684251308442 h-17.4 v30.4 h14 c9.6,0 17.4,7.8 17.4,17.4 v2 c0,9.6 -7.8,17.4 -17.4,17.4 h-14 V109.47368425130844 h17.4 c25.4,0 46.1,-20.8 46.1,-46.1 v-5.4 C592.3,32.673684251308444 571.5,11.873684251308442 546.2,11.873684251308442 L546.2,11.873684251308442 zM492.1,11.873684251308442 h32.6 v154.9 h-32.6 V11.873684251308442 L492.1,11.873684251308442 zM417.2,46.173684251308444 h32.6 v120.5 h-32.6 V46.173684251308444 L417.2,46.173684251308444 zM482.2,11.873684251308442 v30 h-97.4 v-30 H482.2 L482.2,11.873684251308442 zM322.6,11.873684251308442 h36.9 l35.6,154.9 h-32.6 l-22.7,-98.9 c-2.6,-11.2 -10.2,-25 -23.8,-24.9 L322.6,11.873684251308442 L322.6,11.873684251308442 zM314,47.57368425130844 l-27.4,119.2 h32.6 l4.4,-19.1 h30.9 l-5.7,-26 h-19.2 l9,-39 l-3.2,-13.8 c-2.1,-9.3 -8.3,-21.5 -19.4,-21.4 L314,47.57368425130844 L314,47.57368425130844 zM235.7,9.873684251308442 c25.8,0 46.9,20.9 47.2,46.6 l-31.6,2.1 v-2.5 c0,-8.7 -7,-15.8 -15.7,-15.9 V9.873684251308442 L235.7,9.873684251308442 zM235.3,102.17368425130844 h16.1 v22 c0,8.7 -7,15.8 -15.7,15.9 v29.2 c26,0 47.2,-21.3 47.2,-47.2 V75.77368425130844 H267 h-15.6 h-16.1 V102.17368425130844 L235.3,102.17368425130844 zM231.3,169.27368425130845 c-26,0 -47.2,-21.3 -47.2,-47.2 v-65 c0,-26 21.3,-47.2 47.2,-47.2 v30.4 c-8.5,0.30000000000000004 -15.3,7.3 -15.3,15.9 v68.1 c0,8.6 6.8,15.6 15.3,15.9 V169.27368425130845 L231.3,169.27368425130845 zM136.8,11.873684251308442 h32.6 v154.9 h-32.6 V11.873684251308442 L136.8,11.873684251308442 zM75,9.873684251308442 c25.8,0 46.9,20.9 47.2,46.6 l-31.6,2.1 v-2.5 c0,-8.7 -7,-15.8 -15.7,-15.9 V9.873684251308442 L75,9.873684251308442 zM74.6,102.17368425130844 h16.1 v22 c0,8.7 -7,15.8 -15.7,15.9 v29.2 c26,0 47.2,-21.3 47.2,-47.2 V75.77368425130844 h-15.9 H90.7 H74.6 V102.17368425130844 L74.6,102.17368425130844 zM70.6,169.27368425130845 c-26,0 -47.2,-21.3 -47.2,-47.2 v-65 c0,-26 21.3,-47.2 47.2,-47.2 v30.4 c-8.5,0.30000000000000004 -15.3,7.3 -15.3,15.9 v68.1 c0,8.6 6.8,15.6 15.3,15.9 V169.27368425130845 L70.6,169.27368425130845 z" id="svg_2"/></g></svg>