<svg width="23px" height="20px" viewBox="0 0 23 20" fill="none" xmlns="http://www.w3.org/2000/svg"><path fill-rule="evenodd" clip-rule="evenodd" d="M9.22287 1.54164L10.7753 3.08328V6.60429V10.1252L9.21626 11.6873L7.65711 13.2492H6.25461H4.85205V16.6246V20H2.42603H0V10V0H3.8352H7.67047L9.22287 1.54164ZM21.44 1.56101L23 3.12208V5.47268V7.82334H20.4164H17.8329V5.9306V4.03785H17.4233H17.0137V10V15.9621H17.4233H17.8329V13.6909V11.4196H20.4164H23V14.1478V16.876L21.4409 18.438L19.8818 20H17.2982H14.7146L13.1545 18.439L11.5945 16.8779V10.0009V3.12397L13.1536 1.56196L14.7128 0H17.2963H19.8799L21.44 1.56101ZM4.89667 4.01426C4.87209 4.0388 4.85205 5.24656 4.85205 6.69823V9.33754H5.29315H5.73425V6.71924C5.73425 5.27918 5.74137 4.07962 5.75 4.05363C5.77029 3.99268 4.95571 3.95508 4.89667 4.01426Z" fill="white"></path></svg>