<svg width="23px" height="18px" viewBox="0 0 23 18" fill="none" xmlns="http://www.w3.org/2000/svg"><path fill-rule="evenodd" clip-rule="evenodd" d="M1.67744 14.7731C-0.0816116 14.2702 -0.380303 13.232 0.423741 12.6338C1.16724 12.0792 2.43143 11.6651 2.43143 11.6651L7.65206 9.80029V11.925L3.89501 13.2756C3.23063 13.5178 3.12891 13.8536 3.66898 14.0304C4.20904 14.2072 5.18504 14.1571 5.84861 13.9182L7.65045 13.2611V15.1622C7.53662 15.1832 7.40827 15.2034 7.29121 15.2227C5.41114 15.5294 3.48473 15.3751 1.67744 14.7731ZM12.6919 14.9943L18.5502 12.9035C19.2154 12.6613 19.3172 12.3271 18.7771 12.1503C18.237 11.9735 17.261 12.0235 16.5975 12.2633L12.6935 13.6405V11.4455L12.9195 11.3688C13.8015 11.0835 14.7108 10.8906 15.6328 10.7932C17.2191 10.6181 19.1614 10.8175 20.6855 11.3955C22.4042 11.9396 22.5979 12.7412 22.1612 13.2934C21.7244 13.8455 20.654 14.2387 20.654 14.2387L12.6935 17.1037L12.6919 14.9943ZM13.3772 1.38609C16.4618 2.45088 17.5072 3.77642 17.5072 6.76333C17.5072 9.67355 15.7199 10.7771 13.4499 9.67517V4.24787C13.4499 3.61174 13.3336 3.02566 12.7395 2.85936C12.2842 2.71244 12.0016 3.13787 12.0016 3.774V17.3564L8.35923 16.1939V0C9.90839 0.289004 12.1647 0.968727 13.3772 1.38286V1.38609ZM21.2078 16.252C21.2104 16.2734 21.2079 16.295 21.2003 16.3151C21.1927 16.3352 21.1803 16.3532 21.1642 16.3675C21.1243 16.3921 21.0778 16.404 21.031 16.4014H20.7509V16.1116H21.0479C21.0812 16.1103 21.1142 16.1163 21.1448 16.1293C21.1663 16.1412 21.1838 16.1592 21.195 16.1811C21.2062 16.2029 21.2107 16.2276 21.2078 16.252ZM21.4088 16.9124C21.4008 16.9075 21.394 16.9009 21.3888 16.8931C21.3837 16.8853 21.3803 16.8764 21.3789 16.8672C21.373 16.8407 21.3703 16.8136 21.3709 16.7864L21.3652 16.6548C21.3675 16.6068 21.3551 16.5592 21.3297 16.5184C21.3127 16.4982 21.2922 16.4813 21.2691 16.4684C21.2994 16.4487 21.3255 16.4232 21.3458 16.3933C21.3736 16.3459 21.3873 16.2916 21.3854 16.2367C21.3894 16.1844 21.3772 16.1322 21.3505 16.0872C21.3237 16.0421 21.2838 16.0064 21.236 15.9848C21.1755 15.9598 21.1102 15.9479 21.0447 15.9501H20.5757V16.9753H20.7509V16.5547H21.027C21.0635 16.5527 21.1 16.5582 21.1343 16.5709C21.1533 16.5817 21.1687 16.5977 21.1789 16.617C21.189 16.6363 21.1934 16.6581 21.1916 16.6799L21.1997 16.8413C21.2001 16.8684 21.2025 16.8954 21.207 16.9221C21.2094 16.9355 21.2138 16.9486 21.2199 16.9608L21.2264 16.9729H21.4217V16.9132L21.4088 16.9124ZM20.2068 16.4845C20.2061 16.2818 20.2856 16.0871 20.428 15.9428C20.4974 15.8716 20.5804 15.815 20.672 15.7763C20.7637 15.7377 20.8621 15.7178 20.9616 15.7178C21.061 15.7178 21.1595 15.7377 21.2511 15.7763C21.3428 15.815 21.4258 15.8716 21.4952 15.9428C21.6004 16.05 21.672 16.1856 21.701 16.3329C21.73 16.4803 21.7152 16.6329 21.6585 16.7719C21.6017 16.9109 21.5054 17.0303 21.3816 17.1152C21.2577 17.2002 21.1117 17.247 20.9616 17.2498C20.8622 17.2499 20.7637 17.2301 20.6721 17.1915C20.5804 17.153 20.4974 17.0965 20.428 17.0254C20.2858 16.8813 20.2063 16.6869 20.2068 16.4845ZM20.9616 17.4048C21.0811 17.405 21.1994 17.3811 21.3095 17.3346C21.4196 17.2882 21.5193 17.2201 21.6025 17.1344C21.7727 16.9606 21.8681 16.727 21.8681 16.4837C21.8681 16.2404 21.7727 16.0069 21.6025 15.833C21.5191 15.7476 21.4194 15.6797 21.3093 15.6334C21.1992 15.5871 21.081 15.5633 20.9616 15.5634C20.7811 15.5668 20.6056 15.6231 20.4567 15.7252C20.3078 15.8273 20.1921 15.9707 20.1239 16.1379C20.0557 16.305 20.038 16.4885 20.073 16.6656C20.1079 16.8427 20.194 17.0057 20.3206 17.1344C20.4039 17.2201 20.5035 17.2882 20.6136 17.3346C20.7237 17.3811 20.8421 17.405 20.9616 17.4048Z" fill="white"></path></svg>