<svg width="21px" height="21px" viewBox="0 0 21 21" fill="none" xmlns="http://www.w3.org/2000/svg"><path d="M9.45464 20.9564C7.83805 20.8025 6.20043 20.2218 4.79176 19.3031C3.61202 18.5336 3.3457 18.2188 3.3457 17.5868C3.3457 16.3206 4.74036 14.1006 7.1232 11.5729C8.47814 10.1364 10.3634 8.45281 10.5666 8.49712C10.9638 8.58573 14.1339 11.6778 15.3206 13.1306C17.1989 15.4345 18.0632 17.3186 17.624 18.1581C17.29 18.7971 15.2225 20.0446 13.704 20.5227C12.4519 20.9191 10.8072 21.087 9.45464 20.9564ZM1.75481 16.2716C0.775979 14.7699 0.280724 13.2891 0.040104 11.1508C-0.0393239 10.4442 -0.0112905 10.0408 0.219985 8.59039C0.507326 6.78318 1.53522 4.69381 2.77336 3.40661C3.30132 2.85861 3.34804 2.84462 3.99047 3.06149C4.77073 3.32499 5.60239 3.89863 6.89426 5.06691L7.64882 5.74782L7.23767 6.25384C5.32439 8.59972 3.30833 11.925 2.54909 13.9817C2.1356 15.0987 1.96973 16.2227 2.14728 16.689C2.26642 17.0038 2.15662 16.8872 1.75481 16.2716ZM18.9486 16.5258C19.0444 16.0548 18.9229 15.1873 18.6356 14.3128C18.0165 12.4193 15.9397 8.89354 14.0334 6.49869L13.433 5.74549L14.0825 5.14853C14.9305 4.36968 15.5192 3.9033 16.1546 3.50921C16.6569 3.19674 17.3717 2.92157 17.6801 2.92157C17.8693 2.92157 18.5374 3.61414 19.0771 4.37201C19.9134 5.54262 20.5278 6.96507 20.8385 8.44348C21.0394 9.39956 21.0558 11.4446 20.8712 12.396C20.7194 13.1772 20.397 14.1916 20.084 14.8818C19.848 15.3972 19.264 16.3976 19.007 16.724C18.8762 16.8872 18.8762 16.8872 18.9486 16.5258ZM9.62751 2.56246C8.7468 2.11474 7.38951 1.6367 6.63962 1.50612C6.37564 1.46181 5.92944 1.43616 5.6421 1.45015C5.02303 1.48047 5.05107 1.45015 6.04391 0.981443C6.86856 0.592018 7.55771 0.363493 8.49216 0.167615C9.54341 -0.0539145 11.5174 -0.0562464 12.5523 0.162951C13.669 0.398472 14.9842 0.888168 15.7248 1.34289L15.9444 1.47814L15.4398 1.45248C14.4352 1.40118 12.9728 1.80693 11.4006 2.57179C10.9264 2.80265 10.5152 2.98687 10.4849 2.97987C10.4568 2.97521 10.069 2.78632 9.62751 2.56246Z" fill="white"></path></svg>